<?xml version="1.0" standalone="no"?>
<!DOCTYPE svg PUBLIC "-//W3C//DTD SVG 20010904//EN"
 "http://www.w3.org/TR/2001/REC-SVG-20010904/DTD/svg10.dtd">
<svg version="1.0" xmlns="http://www.w3.org/2000/svg"
 width="700.000000pt" height="700.000000pt" viewBox="0 0 700.000000 700.000000"
 preserveAspectRatio="xMidYMid meet">
<metadata>
Created by potrace 1.11, written by Peter Selinger 2001-2013
</metadata>
<g transform="translate(0.000000,700.000000) scale(0.100000,-0.100000)"
fill="#000000" stroke="none">
<path d="M3295 6994 c-22 -2 -92 -9 -155 -15 -657 -62 -1313 -335 -1850 -767
-120 -97 -339 -309 -440 -427 -455 -530 -735 -1170 -826 -1890 -25 -195 -25
-605 0 -800 24 -188 67 -403 116 -569 378 -1291 1460 -2255 2782 -2475 222
-37 320 -45 583 -45 365 0 640 38 967 133 214 63 305 99 332 132 50 59 42 149
-17 193 -56 41 -75 40 -234 -13 -348 -117 -623 -167 -973 -178 -414 -13 -816
54 -1220 204 -212 78 -517 240 -707 375 -70 50 -84 64 -79 82 7 31 116 598
116 607 0 4 17 13 38 19 167 54 288 191 311 352 11 78 1 145 -38 271 l-31 98
16 67 c37 156 -4 312 -110 417 -76 76 -136 101 -347 143 l-184 37 -298 227
c-163 125 -306 232 -317 238 -36 19 -93 10 -259 -45 -92 -30 -173 -55 -179
-55 -9 0 -12 49 -12 182 l0 182 38 -36 c49 -47 72 -58 124 -58 54 0 452 57
495 71 18 6 46 26 63 45 24 28 30 43 30 83 0 43 -8 59 -90 180 -49 73 -90 136
-90 141 0 5 51 45 112 89 62 44 125 92 139 108 14 15 107 170 205 343 168 296
185 322 283 430 114 127 152 184 181 277 46 148 33 292 -39 438 -40 80 -117
173 -190 226 l-34 25 89 65 c404 296 877 496 1369 578 150 25 314 41 417 41
l79 0 -123 -152 -123 -151 -464 -163 c-321 -113 -472 -170 -487 -186 -29 -29
-294 -670 -294 -710 0 -42 14 -65 195 -318 90 -126 171 -240 181 -255 17 -26
16 -27 -18 -63 -20 -20 -68 -82 -109 -137 -40 -55 -113 -147 -162 -204 -162
-189 -231 -319 -262 -496 -18 -102 -19 -165 -5 -255 43 -267 199 -479 436
-591 167 -79 345 -93 557 -44 125 28 174 28 198 -2 9 -10 16 -54 20 -112 7
-119 32 -179 114 -276 95 -111 105 -174 54 -327 -62 -190 -50 -311 57 -556 30
-70 75 -181 100 -247 103 -281 200 -425 307 -454 154 -43 343 35 524 218 82
83 116 142 142 245 10 41 27 86 38 99 82 105 115 155 133 203 32 86 43 103
119 189 135 151 167 265 120 436 -33 123 -36 196 -8 250 12 26 100 124 208
234 193 198 243 265 268 358 27 103 -23 201 -125 245 -26 11 -88 28 -137 37
-132 24 -150 32 -196 83 -47 53 -141 242 -219 437 -117 293 -180 380 -324 449
-92 45 -391 136 -444 136 -57 0 -135 -33 -181 -77 -24 -24 -47 -43 -51 -43 -4
0 -38 20 -77 45 l-71 45 -4 65 c-5 78 -37 125 -114 167 -79 44 -156 52 -371
42 -103 -5 -190 -8 -192 -7 -11 7 38 90 76 130 66 68 136 95 263 103 112 7
137 15 169 56 47 59 35 145 -27 192 -34 26 -40 27 -141 26 -64 -1 -132 -8
-171 -19 -129 -33 -253 -116 -340 -226 l-36 -46 -100 140 c-54 77 -98 145 -96
151 8 32 187 463 196 473 6 6 199 77 429 157 230 81 436 154 457 162 33 13 74
59 246 275 l206 259 51 -6 c1274 -147 2324 -1004 2716 -2216 23 -70 41 -135
41 -145 0 -9 -22 -38 -49 -64 -63 -60 -99 -122 -115 -200 l-12 -62 -48 134
c-27 74 -57 149 -67 167 -33 57 -228 281 -272 311 -75 51 -122 61 -293 61
-132 0 -160 -3 -192 -19 -104 -53 -142 -172 -87 -274 l24 -46 -42 -35 c-67
-54 -196 -135 -282 -176 -138 -67 -110 -89 -267 215 l-138 266 0 70 c0 38 -6
84 -13 102 -13 29 -201 222 -284 292 -19 15 -93 48 -174 76 -113 40 -149 48
-178 43 -70 -14 -125 -99 -107 -169 13 -52 56 -83 175 -125 111 -39 116 -43
205 -127 l91 -87 5 -71 c6 -68 12 -82 196 -435 209 -399 217 -410 298 -410 57
1 275 90 412 168 129 74 241 157 336 247 81 78 97 118 75 183 l-15 42 35 0
c19 0 42 -4 52 -10 25 -13 185 -198 203 -235 8 -17 55 -140 103 -275 49 -135
97 -257 107 -271 27 -41 90 -62 141 -48 62 16 186 144 231 239 l34 71 9 -58
c16 -111 9 -607 -10 -738 -86 -595 -290 -1096 -630 -1547 -148 -197 -294 -349
-526 -548 -41 -36 -79 -78 -87 -97 -40 -94 49 -198 152 -179 46 9 156 99 333
271 307 299 521 595 707 980 546 1126 453 2436 -246 3480 -167 248 -434 547
-653 728 -523 434 -1135 699 -1815 788 -149 19 -536 33 -637 23z m-1929 -1195
c48 -29 103 -95 131 -156 21 -46 25 -66 21 -131 -5 -104 -26 -144 -150 -278
-98 -106 -111 -126 -287 -433 l-183 -322 -170 -121 c-96 -68 -179 -135 -189
-152 -37 -60 -27 -104 51 -218 79 -117 81 -109 -39 -123 -68 -8 -53 -16 -185
102 l-49 44 23 117 c45 236 141 524 252 763 145 309 392 658 631 891 65 62 69
63 143 17z m1664 -1226 c0 -30 7 -59 19 -76 19 -29 224 -167 323 -218 79 -40
164 -61 213 -53 56 9 93 29 146 81 l46 45 123 -37 c67 -20 140 -45 161 -55 64
-33 102 -96 189 -317 73 -183 179 -398 232 -469 84 -112 182 -173 315 -196 40
-6 73 -17 73 -23 0 -6 -82 -94 -183 -195 -167 -169 -187 -193 -226 -270 -72
-145 -76 -231 -21 -430 12 -45 18 -87 14 -104 -3 -16 -39 -65 -79 -110 -87
-99 -115 -142 -145 -224 -14 -39 -44 -89 -77 -129 -68 -83 -89 -124 -113 -220
-23 -91 -35 -109 -126 -187 -81 -69 -169 -114 -193 -99 -25 15 -76 117 -122
243 -23 63 -68 174 -99 245 -108 246 -113 276 -70 415 37 119 48 209 38 295
-13 112 -47 180 -165 323 -24 30 -28 44 -33 137 -8 121 -29 172 -98 240 -106
105 -225 127 -435 81 -65 -14 -149 -26 -186 -26 -224 0 -420 150 -476 365 -19
74 -19 213 0 284 29 109 69 174 218 346 37 44 99 123 137 176 104 145 125 164
193 179 48 9 175 19 375 29 32 1 32 1 32 -46z m-2107 -1650 c150 -113 286
-214 302 -224 17 -9 117 -34 224 -55 173 -33 197 -40 227 -66 52 -45 61 -91
39 -187 -22 -99 -17 -164 24 -292 35 -108 38 -146 15 -194 -20 -44 -48 -61
-152 -96 -100 -34 -127 -50 -146 -87 -8 -15 -37 -149 -65 -297 -29 -149 -55
-281 -59 -294 -7 -22 -17 -14 -130 103 -460 480 -752 1039 -872 1674 -12 63
-20 115 -18 117 5 5 312 103 326 104 8 1 136 -92 285 -206z"/>
<path d="M3605 5383 c-58 -15 -105 -78 -105 -141 0 -64 76 -132 148 -132 144
0 182 200 49 260 -43 20 -56 22 -92 13z"/>
<path d="M5332 2619 c-24 -16 -45 -47 -78 -118 -63 -131 -73 -143 -156 -186
-122 -63 -172 -106 -208 -178 -32 -66 -38 -113 -31 -252 2 -44 -3 -72 -18
-106 -51 -113 -65 -247 -35 -336 22 -67 83 -144 145 -184 64 -41 150 -51 212
-24 93 39 182 159 241 326 45 126 206 670 206 697 0 42 -79 314 -96 334 -47
51 -126 63 -182 27z m-112 -736 c-71 -238 -135 -390 -152 -359 -14 25 -5 73
34 169 31 77 33 89 33 207 l0 125 70 37 c38 20 71 35 73 33 2 -2 -24 -97 -58
-212z"/>
<path d="M5105 700 c-61 -40 -81 -116 -47 -179 60 -112 234 -82 258 44 8 46
-25 119 -65 139 -42 22 -109 20 -146 -4z"/>
</g>
</svg>
